<?xml version="1.0" encoding="UTF-8" standalone="no"?>
<!DOCTYPE svg PUBLIC "-//W3C//DTD SVG 1.1//EN" "http://www.w3.org/Graphics/SVG/1.1/DTD/svg11.dtd">
<svg width="100%" height="100%" viewBox="0 0 1080 1080" version="1.1" xmlns="http://www.w3.org/2000/svg" xmlns:xlink="http://www.w3.org/1999/xlink" xml:space="preserve" xmlns:serif="http://www.serif.com/" style="fill-rule:evenodd;clip-rule:evenodd;stroke-linejoin:round;stroke-miterlimit:2;">
    <g transform="matrix(1.00875,0,0,1.00184,0.045713,-32.558)">
        <rect x="-5.227" y="-3.162" width="1083.16" height="1118.29" style="fill:rgb(0,0,255);"/>
    </g>
    <g transform="matrix(0.797832,0,0,0.797832,-207.41,195.652)">
        <path d="M506.598,384.664L592.042,384.664C604.652,384.664 617.697,385.098 631.177,385.968C644.656,386.838 657.81,388.686 670.637,391.512C683.465,394.338 695.64,398.524 707.163,404.068C718.686,409.612 728.741,417.058 737.329,426.407C745.917,435.756 752.766,447.333 757.875,461.139C762.984,474.945 765.539,491.523 765.539,510.873L765.539,537.941C765.539,552.725 763.419,566.314 759.179,578.706C754.94,591.099 749.341,602.024 742.384,611.481C735.427,620.939 727.491,628.766 718.577,634.962C709.663,641.159 700.532,645.344 691.183,647.518L691.183,650.127C718.795,655.127 739.612,668.227 753.635,689.425C767.659,710.623 774.67,737.745 774.67,770.792L774.67,799.165C774.67,819.384 772.442,836.94 767.985,851.833C763.528,866.726 757.277,879.445 749.233,889.99C741.188,900.534 731.622,909.176 720.534,915.916C709.446,922.656 697.271,927.929 684.008,931.733C670.746,935.538 656.614,938.147 641.612,939.56C626.611,940.973 611.174,941.68 595.303,941.68L506.598,941.68L506.598,384.664ZM605.739,623.059C617.045,623.059 627.372,621.7 636.721,618.982C646.069,616.265 654.059,612.025 660.691,606.263C667.322,600.502 672.431,593.001 676.018,583.761C679.606,574.521 681.399,563.378 681.399,550.334L681.399,527.505C681.399,514.46 680.095,502.937 677.486,492.936C674.877,482.935 670.583,474.456 664.604,467.499C658.625,460.541 650.798,455.269 641.123,451.682C631.448,448.094 619.654,446.301 605.739,446.301L589.433,446.301L589.433,623.059L605.739,623.059ZM613.566,882.978C624.872,882.978 635.144,881.51 644.384,878.575C653.625,875.64 661.56,871.075 668.191,864.878C674.823,858.682 679.932,850.801 683.519,841.234C687.106,831.668 688.9,820.363 688.9,807.318L688.9,763.943C688.9,750.899 687.596,739.321 684.987,729.211C682.378,719.102 678.084,710.623 672.105,703.774C666.126,696.925 658.353,691.707 648.787,688.12C639.221,684.533 627.48,682.739 613.566,682.739L589.433,682.739L589.433,882.978L613.566,882.978Z" style="fill:rgb(255,255,248);fill-rule:nonzero;"/>
        <path d="M848.048,384.664L932.513,384.664L932.513,617.841L1032.63,617.841L1032.63,384.664L1117.1,384.664L1117.1,941.68L1032.63,941.68L1032.63,684.37L932.513,684.37L932.513,941.68L848.048,941.68L848.048,384.664Z" style="fill:rgb(255,255,248);fill-rule:nonzero;"/>
        <path d="M1212.98,384.664L1297.44,384.664L1297.44,875.151L1412.57,875.151L1412.57,941.68L1212.98,941.68L1212.98,384.664Z" style="fill:rgb(255,255,248);fill-rule:nonzero;"/>
    </g>
    <g transform="matrix(-0.623852,0,0,0.623852,1208.35,-90.4774)">
        <path d="M399.425,838.421L303.158,838.421L1071.33,221.053L1839.51,838.421L1743.24,838.421L1071.33,298.421L399.425,838.421Z" style="fill:rgb(255,255,0);"/>
    </g>
</svg>
