<?xml version="1.0" encoding="UTF-8" standalone="no"?>
<!DOCTYPE svg PUBLIC "-//W3C//DTD SVG 1.1//EN" "http://www.w3.org/Graphics/SVG/1.1/DTD/svg11.dtd">
<svg width="20px" height="20px" viewBox="0 0 1080 1080" version="1.1" xmlns="http://www.w3.org/2000/svg" xmlns:xlink="http://www.w3.org/1999/xlink" xml:space="preserve" xmlns:serif="http://www.serif.com/" style="fill-rule:evenodd;clip-rule:evenodd;stroke-linejoin:round;stroke-miterlimit:2;">
    <g transform="matrix(1.5433,0,0,1.5433,-203.384,-270.453)">
        <path d="M788.138,764.599C789.146,773.291 788.545,792.133 778.421,797.338C766.802,803.312 738.715,800.445 718.421,800.445C427.425,800.445 192.712,583.54 192.712,318.446C192.712,290.851 214.313,250.95 243.096,237.418C272.45,223.619 368.841,235.647 368.841,235.647C384.691,235.423 398.673,245.983 402.794,261.29L433.573,375.619C436.402,386.127 434.131,397.354 427.44,405.936L328.434,532.934C376.43,604.088 447.556,660.999 532.187,695.268L608.839,620.978C615.13,614.881 623.894,612.153 632.458,613.627L753.314,634.422C765.26,636.477 774.419,646.237 775.831,658.418L788.138,764.599ZM729.419,734.374L723.77,685.637L636.665,670.65L594.812,711.214L729.419,734.374ZM315.623,436.634L362.151,376.95C362.151,376.95 342.871,305.331 342.871,305.331C342.871,305.331 280.511,306.21 280.511,306.21L315.623,436.634Z" style="fill:white;"/>
    </g>
</svg>
